<svg xmlns="http://www.w3.org/2000/svg" width="32" height="29">
    <path fill="#DC6750" fill-rule="evenodd" d="M31.422.313c-.646-.496-1.578-.381-2.081.255l-5.37 6.795H5.684c-.819 0-1.483.654-1.483 1.461v8.473l-2.079-.932c-.739-.347-1.625-.038-1.977.69-.352.728-.039 1.6.701 1.947l.047.022 3.308 1.482v7.032c0 .806.664 1.461 1.483 1.461h19.003c.819 0 1.483-.655 1.483-1.461V9.336l5.511-6.973c.504-.637.387-1.555-.259-2.05zM7.167 10.284h14.495l-8.659 10.958-5.836-2.616v-8.342zm16.036 15.793H7.167v-4.241l5.672 2.543c.625.28 1.363.101 1.785-.432l8.579-10.857v12.987z"/>
</svg>
